<svg width="200" height="100" xmlns="http://www.w3.org/2000/svg">
 <g id="Layer_1">
  <title>Layer 1</title>
  <path d="m67,80c0,-1 0,-2 0,-3c0,-1 0,-2 0,-3c0,-2 0,-4 0,-6c0,-2 0,-5 0,-8c0,-3 0,-5 0,-7c0,-2 0,-4 0,-6c0,-1 0,-2 0,-3l0,-1l0,-1" id="svg_1" stroke="#000" fill="none"/>
  <path d="m114,82c0,-1 0,-3 0,-4c0,-2 0,-4 0,-5c0,-2 0,-4 0,-6c0,-3 0,-5 0,-6c0,-1 -0.48626,-1.82375 -1,-4c-0.4595,-1.9465 -1,-4 -1,-7c0,-1 0,-3 0,-4c0,-1 0,-2 0,-3c0,-1 0,-2 0,-3c0,-1 0,-2 0,-3c0,-1 0,-2 0,-3l0,-1" id="svg_2" stroke="#000" fill="none"/>
  <path d="m66,40c0,-1 1,-1 3,-1c1,0 3,0 4,0c1,0 2,0 3,0c1,0 2,0 3,0c2,0 3.69344,0.45881 5,1c0.92388,0.38268 2,0 3,0c1,0 2,0 3,0c3,0 4,0 6,0c2,0 3,0 4,0c2,0 4,0 6,0c1,0 2,0 3,0c1,0 2,0 3,0l1,0l1,0" id="svg_3" stroke="#000" fill="none"/>
  <path d="m69,78c1,0 2,0 3,0c1,0 2,0 3,0c2,0 3,0 5,0c1,0 2,0 3,0c1,0 1.82375,1.48626 4,2c0.97325,0.22975 2,0 3,0c1,0 1.82375,0.48626 4,1c0.97325,0.22975 3,0 5,0c2,0 4,0 6,0c4,0 7,0 11,0l3,0l1,0" id="svg_4" stroke="#000" fill="none"/>
  <path d="m48,48c0,1 1,1 2,1c1,0 2.55819,-0.51928 6,-3c3.62799,-2.6149 7.61384,-4.297 10,-7c1.47984,-1.67633 2.41886,-2.41886 4,-4c1.58114,-1.58114 2.48626,-3.82375 3,-6c0.22975,-0.97325 0.61732,-2.07612 1,-3c0.5412,-1.30656 1.75563,-3.01498 2,-5c0.50378,-4.09221 3.1731,-5.85273 4,-7c1.30745,-1.81399 1.07612,-2.61732 2,-3c1.30656,-0.5412 3,-2 6,-3c3,-1 5,-2 6,-2l1,0l1,0l1,0" id="svg_5" stroke="#000" fill="none"/>
  <path d="m134,53c-1,0 -2.07613,0.38268 -3,0c-1.30656,-0.54119 -2.4588,-1.69344 -3,-3c-0.38268,-0.92388 -1.4588,-1.69344 -2,-3c-0.38268,-0.92388 -1.4588,-1.69344 -2,-3c-0.38268,-0.92388 -1.4588,-2.69344 -2,-4c-0.38268,-0.92388 -0.61732,-2.07612 -1,-3c-0.5412,-1.30656 -2.29289,-2.29289 -3,-3c-0.70711,-0.70711 -0.4588,-2.69344 -1,-4c-0.38268,-0.92388 -1,-2 -1,-3c0,-1 -2.49346,-1.87856 -3,-5c-0.16018,-0.98709 -1.4588,-2.69344 -2,-4c-0.76537,-1.84776 -1.48626,-2.82375 -2,-5c-0.22975,-0.97325 -1,-3 -2,-4c-1,-1 -1.29289,-1.29289 -2,-2c-0.70711,-0.70711 -2,-1 -3,-1l0,-1" id="svg_6" stroke="#000" fill="none"/>
  <path d="m83,54c0,1 0,2 0,3c0,1 0,2 0,3c0,1 0,2 0,3l1,1l0,1" id="svg_7" stroke="#000" fill="none"/>
  <path d="m98,51c0,1 -0.38268,2.07612 0,3c0.5412,1.30656 1,2 1,3c0,1 0,2 0,3c0,1 0,2 0,3c0,1 0,2 0,3l0,1" id="svg_8" stroke="#000" fill="none"/>
  <path d="m84,65c1,0 2,0 3,0c1,0 2,0 3,0c1,0 2,1 3,1c1,0 2,0 3,0c1,0 2,0 3,0l1,0l1,0" id="svg_9" stroke="#000" fill="none"/>
  <path d="m85,54c1,0 2,0 3,0c1,0 2,0 3,0c1,0 2,0 3,0l1,0l1,0l1,0" id="svg_10" stroke="#000" fill="none"/>
 </g>
</svg>